/* XPM */
static char *result[] = {
/* columns rows colors chars-per-pixel */
"40 40 242 2 ",
"   c black",
".  c #0A0800",
"X  c #0E0C01",
"o  c #0F0C01",
"O  c #100D01",
"+  c #100E01",
"@  c #100E02",
"#  c #100F08",
"$  c #171301",
"%  c #1C1701",
"&  c #101009",
"*  c #101010",
"=  c #272001",
"-  c #282101",
";  c #2E2701",
":  c #38310D",
">  c gray14",
",  c #272727",
"<  c #333020",
"1  c gray23",
"2  c #615102",
"3  c #6D5A02",
"4  c #796502",
"5  c #7A6602",
"6  c #786508",
"7  c #7A680E",
"8  c #524D30",
"9  c #6C612C",
"0  c #6D622D",
"q  c #7F7233",
"w  c #444444",
"e  c #7E7441",
"r  c #717171",
"t  c gray48",
"y  c #877002",
"u  c #8B7402",
"i  c #977E00",
"p  c #987E00",
"a  c #987F00",
"s  c #997F00",
"d  c #998000",
"f  c #9A8000",
"g  c #9C8201",
"h  c #9D8301",
"j  c #9E8300",
"k  c #9E8401",
"l  c #9F8503",
"z  c #A08600",
"x  c #A28601",
"c  c #A28701",
"v  c #A58A00",
"b  c #A68B01",
"n  c #A78B01",
"m  c #A48802",
"M  c #A88C01",
"N  c #A88D01",
"B  c #A98D01",
"V  c #AB8F01",
"C  c #A88C02",
"Z  c #AC8F01",
"A  c #A88E0B",
"S  c #A88F0E",
"D  c #AE9101",
"F  c #AF9201",
"G  c #B09301",
"H  c #B19401",
"J  c #B29501",
"K  c #B49601",
"L  c #B59701",
"P  c #B69701",
"I  c #B49703",
"U  c #B79801",
"Y  c #B59803",
"T  c #B89A01",
"R  c #B99A01",
"E  c #BA9A01",
"W  c #B99B03",
"Q  c #BB9C01",
"!  c #BB9C03",
"~  c #BD9D01",
"^  c #BF9E01",
"/  c #BF9F01",
"(  c #BD9E03",
")  c #BE9F03",
"_  c #BF9F03",
"`  c #B89A05",
"'  c #BC9E0A",
"]  c #B19712",
"[  c #B0981B",
"{  c #BFA003",
"}  c #BEA112",
"|  c #9F8D34",
" . c #C0A001",
".. c #C1A001",
"X. c #C2A101",
"o. c #C2A201",
"O. c #C3A201",
"+. c #C0A003",
"@. c #C1A103",
"#. c #C2A203",
"$. c #C3A203",
"%. c #C3A303",
"&. c #C4A301",
"*. c #C6A501",
"=. c #C4A402",
"-. c #C6A502",
";. c #C7A502",
":. c #CAA701",
">. c #C9A702",
",. c #CBA801",
"<. c #CBA901",
"1. c #CBAA01",
"2. c #CAA802",
"3. c #CBA902",
"4. c #CEAB01",
"5. c #CDAA02",
"6. c #CEAB02",
"7. c #CFAB02",
"8. c #CFAC02",
"9. c #C0A20C",
"0. c #D1AD01",
"q. c #D3AF01",
"w. c #D3AF02",
"e. c #D3B101",
"r. c #D6B101",
"t. c #D6B201",
"y. c #D7B201",
"u. c #D5B002",
"i. c #D6B102",
"p. c #D5B302",
"a. c #D8B301",
"s. c #D9B401",
"d. c #DAB502",
"f. c #DFBA01",
"g. c #DCB802",
"h. c #DEB802",
"j. c #DEB902",
"k. c #DFB902",
"l. c #DEBA02",
"z. c #DEBC0E",
"x. c #C1A516",
"c. c #DEBC17",
"v. c #D2B219",
"b. c #E2BC02",
"n. c #E5BE02",
"m. c #E5BF02",
"M. c #E0BD16",
"N. c #C2A822",
"B. c #C8AD2B",
"V. c #C9AE2B",
"C. c #CDB22B",
"Z. c #CCB22F",
"A. c #CFB430",
"S. c #D1B837",
"D. c #D1B83A",
"F. c #D3B93A",
"G. c #EBC402",
"H. c #ECC502",
"J. c #ECC602",
"K. c #F0C802",
"L. c #F1CA02",
"P. c #F3CC02",
"I. c #F4CC02",
"U. c #F6CE02",
"Y. c #F8D002",
"T. c #F9D002",
"R. c #F9D102",
"E. c #FDD502",
"W. c #FED502",
"Q. c #FFD602",
"!. c #FFD604",
"~. c #FFD704",
"^. c #FFD70A",
"/. c #FFD810",
"(. c #FFD811",
"). c #E6C527",
"_. c #EBCA22",
"`. c #E3C52F",
"'. c #E4C42C",
"]. c #EAC92F",
"[. c #FFDB22",
"{. c #E9C930",
"}. c #EBCC33",
"|. c #ECCC34",
" X c #F5D432",
".X c #FEDD32",
"XX c #FEDD33",
"oX c #F0D23C",
"OX c #FEDE3F",
"+X c #D4BF57",
"@X c #DBC553",
"#X c #DCC652",
"$X c #E5CA43",
"%X c #E5CB4A",
"&X c #E4CB4B",
"*X c #E8CD48",
"=X c #F4D74D",
"-X c #F4D84E",
";X c #EAD152",
":X c #EBD152",
">X c #F0D551",
",X c #F0D653",
"<X c #F6DA50",
"1X c #F6DA51",
"2X c #F6DB58",
"3X c #F9DE5D",
"4X c #FADF5C",
"5X c #FEE04A",
"6X c #FEE150",
"7X c #FDE159",
"8X c #FDE25C",
"9X c #E6D066",
"0X c #FDE260",
"qX c #FDE261",
"wX c #FDE361",
"eX c #FDE262",
"rX c #FDE362",
"tX c #FDE467",
"yX c #FDE46A",
"uX c #FDE678",
"iX c #FDE77C",
"pX c #838383",
"aX c #BAB493",
"sX c #BCBCBC",
"dX c #FCE782",
"fX c #FDE881",
"gX c #FDE882",
"hX c #FDEC96",
"jX c #D0CBB6",
"kX c #FDEEA5",
"lX c #F5E9B2",
"zX c #FDF0B6",
"xX c #FDF1B6",
"cX c #C5C5C5",
"vX c #F0EACD",
"bX c #FCF6D7",
"nX c gray90",
"mX c #ECECEC",
"MX c gray93",
"NX c #F8F4E1",
"BX c gray97",
"VX c None",
/* pixels */
"VXVXVXVXVXVXVXVXVXVXVXVXVXVXVXVXVXVXVXVXVXVXVXVXVXVXVXVXVXVXVXVXVXVXVXVXVXVXVXVX",
"VXVXVXVXVXVXVXVXVXVXVXVXVXVXVXVXVXVXVXVXVXVXVXVXVXVXVXVXVXVXVXVXVXVXVXVXVXVXVXVX",
"VXVXVXVXVXVXVXVXVXVXVXVXVXVXVXVXVXVXVXVXVXVXVXVXVXVXVXVXVXVXVXVXVXVXVXVXVXVXVXVX",
"VXVXVXVXVXVXVXVXVXVXVXVXVXVXVXVXVXVXVXVXVXVXVXVXVXVXVXVXVXVXVXVXVXVXVXVXVXVXVXVX",
"VXVXVXVXVXVXVXVXVXVXVXVXVXVXVXVXVXVXVXVXVXVXVXVXVXVXVXVXVXVXVXVXVXVXVXVXVXVXVXVX",
"VXVXVXVXVXVXVXVXVXVXVXVXVXVXVXVXVXVXVXVXVXVXVXVXVXVXVXVXVXVXVXVXVXVXVXVXVXVXVXVX",
"VXVXVXVXVXVXVXVXVXVXVXVXVXVXVX& @ + + + + + O o VXVXVXVXVXVXVXVXVXVXVXVXVXVXVXVX",
"VXVXVXVXVXVXVXVXVXVXVXVXVXVXVXwX(.Q.I.y.y.y.8.( $   VXVXVXVXVXVXVXVXVXVXVXVXVXVX",
"VXVXVXVXVXVXVXVXVXVXVXVXVX@X$X/.!.Q.E.Y.T.n.r.w.C m 7 > VXVXVXVXVXVXVXVXVXVXVXVX",
"VXVXVXVXVXVXVXVXVXVXVXVX9X0X5XQ.e.1.1.1.1. ...y.3.#.l 2 VXVXVXVXVXVXVXVXVXVXVXVX",
"VXVXVXVXVXVXVXVXVXVXVXNXuX2XoXL.D x c c c c F 7.7.-.{ ( - VXVXVXVXVXVXVXVXVXVXVX",
"VXVXVXVXVXVXVXVXVXVXbXrX0XZ.a a 4.y.y.y.y.y.O.p a / 6.( ( ; VXVXVXVXVXVXVXVXVXVX",
"VXVXVXVXVXVXVXVXsXlXtX0X[ ` q.q.=X4X4X4X4X).r.q.q.G G i._ Y 6 * VXVXVXVXVXVXVXVX",
"VXVXVXVXVXVXVXVXcXxX,XV.' v.}.}.C.B.B.B.B.} *.H.s.&.R P 2.+.4   VXVXVXVXVXVXVXVX",
"VXVXVXVXVXVXVXVXjXkX%Xd <.].8X6XA s j Z V z J J.k.s.X.a q.%.y = VXVXVXVXVXVXVXVX",
"VXVXVXVXVXVXVXmXfX0X%Xf ,.{.5XQ.N s L Q.Q.=.a i U.m.X.a q.%.( { . VXVXVXVXVXVXVX",
"VXVXVXVXVXVXVXmXfXF.B u.-X.X!.Q.B s L Q.Q.=.s a U.m.t.i.h >.5.{ VXVXVXVXVXVXVXVX",
"VXVXVXVXVXVXVXmXfXD.b t.<XXXQ.Q.B s L Q.Q.=.s a U.I.m.y.g :.6.{ VXVXVXVXVXVXVXVX",
"VXVXVXVXVXVXVXmXfXD.n t.<XXXQ.Q.N s B p.p.J v o.R.Q.L.y.g :.6.{ . VXVXVXVXVXVXVX",
"VXVXVXVXVXVXVXmXfXD.n t.<XXXQ.Q.B s s a a a T Q.Q.Q.L.y.g :.6.{ . VXVXVXVXVXVXVX",
"VXVXVXVXVXVXVXMXfXD.n t.<XXXQ.Q.B s L Q.Q.Q.Q.Q.Q.Q.L.y.g :.6.{ . VXVXVXVXVXVXVX",
"VXVXVXVXVXVXVXmXgXD.n t.1XXXQ.Q.B s L Q.Q.Q.Q.Q.Q.K.b.y.g :.6.{ VXVXVXVXVXVXVXVX",
"VXVXVXVXVXVXVXmXgX&XN.Q `. X[.Q.N s L Q.Q.Q.Q.Q.Q.m.4.Q K ;.-.{ VXVXVXVXVXVXVXVX",
"VXVXVXVXVXVXVXnXdXwX%Xd <.].5X~.B s L Q.Q.Q.Q.Q.W.m.X.i q.%.! W # VXVXVXVXVXVXVX",
"VXVXVXVXVXVXVX* cXxX%Xf <.].0XwXS a L Q.Q.Q.Q.Q.d.y.X.a q.%.4   VXVXVXVXVXVXVXVX",
"VXVXVXVXVXVXVX* cXzX3X:X] 9.c.c.*X;X>X6X6X_.h.j.a.U H ,.$.) 4   VXVXVXVXVXVXVXVX",
"VXVXVXVXVXVXVXVXpXaXhXqXS.x.E E '.|.|.|.|.M.4.E E U ~ 3.) 5 0 VXVXVXVXVXVXVXVXVX",
"VXVXVXVXVXVXVXVXw r vXyXeXA.k k <.q.q.q.q.q.X.g g ..6.( I : VXVXVXVXVXVXVXVXVXVX",
"VXVXVXVXVXVXVXVXVXVX1 BXiXXXQ.Q.M a a a a a V y.y.y.8.( X VXVXVXVXVXVXVXVXVXVXVX",
"VXVXVXVXVXVXVXVXVXVXVX, +X7XOXQ.P.L.L.L.L.g.0.y.$.@.u % VXVXVXVXVXVXVXVXVXVXVXVX",
"VXVXVXVXVXVXVXVXVXVXVXVXe q | XX^.Q.R.G.G.f.q.2.3 2 9 t VXVXVXVXVXVXVXVXVXVXVXVX",
"VXVXVXVXVXVXVXVXVXVXVXVXVX> 8 #Xz.l.p.^ / / P m < > VXVXVXVXVXVXVXVXVXVXVXVXVXVX",
"VXVXVXVXVXVXVXVXVXVXVXVXVXVXVXVXVXVXVXVXVXVXVXVXVXVXVXVXVXVXVXVXVXVXVXVXVXVXVXVX",
"VXVXVXVXVXVXVXVXVXVXVXVXVXVXVXVXVXVXVXVXVXVXVXVXVXVXVXVXVXVXVXVXVXVXVXVXVXVXVXVX",
"VXVXVXVXVXVXVXVXVXVXVXVXVXVXVXVXVXVXVXVXVXVXVXVXVXVXVXVXVXVXVXVXVXVXVXVXVXVXVXVX",
"VXVXVXVXVXVXVXVXVXVXVXVXVXVXVXVXVXVXVXVXVXVXVXVXVXVXVXVXVXVXVXVXVXVXVXVXVXVXVXVX",
"VXVXVXVXVXVXVXVXVXVXVXVXVXVXVXVXVXVXVXVXVXVXVXVXVXVXVXVXVXVXVXVXVXVXVXVXVXVXVXVX",
"VXVXVXVXVXVXVXVXVXVXVXVXVXVXVXVXVXVXVXVXVXVXVXVXVXVXVXVXVXVXVXVXVXVXVXVXVXVXVXVX",
"VXVXVXVXVXVXVXVXVXVXVXVXVXVXVXVXVXVXVXVXVXVXVXVXVXVXVXVXVXVXVXVXVXVXVXVXVXVXVXVX",
"VXVXVXVXVXVXVXVXVXVXVXVXVXVXVXVXVXVXVXVXVXVXVXVXVXVXVXVXVXVXVXVXVXVXVXVXVXVXVXVX"
};
