/* XPM */
static char *result[] = {
/* columns rows colors chars-per-pixel */
"40 40 166 2 ",
"   c #0B0808",
".  c #14100B",
"X  c #1C1409",
"o  c #141413",
"O  c #1A1611",
"+  c #1E1912",
"@  c #181818",
"#  c #231D13",
"$  c #281E11",
"%  c #211E1A",
"&  c #30200C",
"*  c #272017",
"=  c #2C2215",
"-  c #21201E",
";  c #2D261C",
":  c #332614",
">  c #372916",
",  c #392914",
"<  c #312719",
"1  c #342A1B",
"2  c #392C1A",
"3  c #3E311D",
"4  c #272421",
"5  c #3A3327",
"6  c #313030",
"7  c #3C3936",
"8  c #412E16",
"9  c #402E18",
"0  c #433117",
"q  c #493517",
"w  c #43331C",
"e  c #48361C",
"r  c #4C391B",
"t  c #533C1C",
"y  c #473924",
"u  c #4C3C24",
"i  c #433929",
"p  c #463926",
"a  c #513D20",
"s  c #403B36",
"d  c #59401B",
"f  c #60441B",
"g  c #574223",
"h  c #5E4929",
"j  c #54452E",
"k  c #654A23",
"l  c #6A4D23",
"z  c #634D2D",
"x  c #684F29",
"c  c #6E5125",
"v  c #67512E",
"b  c #6B522C",
"n  c #765524",
"m  c #73552A",
"M  c #77582A",
"N  c #7B5B2C",
"B  c #6D5634",
"V  c #765B32",
"C  c #7B5C30",
"Z  c #775F3C",
"A  c #79603F",
"S  c #444444",
"D  c #4C4C4C",
"F  c #535353",
"G  c #5B5B5B",
"H  c #5F5F60",
"J  c #656565",
"K  c #6C6C6C",
"L  c #766F66",
"P  c #7C756B",
"I  c #747474",
"U  c #7D7D7D",
"Y  c #835F29",
"T  c #845E25",
"R  c #8A652C",
"E  c #8E682D",
"W  c #946B2D",
"Q  c #996E2D",
"!  c #9E712E",
"~  c #826334",
"^  c #886633",
"/  c #8F6B35",
"(  c #80653D",
")  c #876939",
"_  c #89693A",
"`  c #956E33",
"'  c #9E7331",
"]  c #977139",
"[  c #9C763A",
"{  c #9E783B",
"}  c #A0732F",
"|  c #A27531",
" . c #A67935",
".. c #A97C37",
"X. c #A57C3D",
"o. c #AB7E3A",
"O. c #8B7149",
"+. c #987746",
"@. c #987748",
"#. c #9C7C4B",
"$. c #92754A",
"%. c #877866",
"&. c #967F62",
"*. c #AE813D",
"=. c #B0833F",
"-. c #9C825D",
";. c #AA8141",
":. c #B38642",
">. c #B68945",
",. c #B98C46",
"<. c #B58B4C",
"1. c #B98D4A",
"2. c #BA904F",
"3. c #B79054",
"4. c #968264",
"5. c #928069",
"6. c #99856A",
"7. c #9C896C",
"8. c #9E8663",
"9. c #878076",
"0. c #978872",
"q. c #988972",
"w. c #91887B",
"e. c #AF9366",
"r. c #B2966B",
"t. c #B59A6D",
"y. c #AE9875",
"u. c #B69B72",
"i. c #B89E76",
"p. c #B39C7A",
"a. c #BAA077",
"s. c #B6A07C",
"d. c #BAA179",
"f. c #C3A679",
"g. c #C7AA7E",
"h. c #C8AB7F",
"j. c #848484",
"k. c #8D8A87",
"l. c #8C8C8C",
"z. c #9B968E",
"x. c #9F998E",
"c. c #9D9486",
"v. c #949494",
"b. c #989692",
"n. c #9B9995",
"m. c #9C9C9C",
"M. c #AB9B83",
"N. c #A39B8E",
"B. c #A79F92",
"V. c #B7A282",
"C. c #B9A485",
"Z. c #AEA597",
"A. c #A4A29C",
"S. c #B1A99C",
"D. c #A3A3A3",
"F. c #A9A8A7",
"G. c #ACACAC",
"H. c #B9B1A3",
"J. c #B3B3B3",
"K. c #BBBBBB",
"L. c #C6B69F",
"P. c #C4B6A0",
"I. c #C1B8AB",
"U. c #C1C1C1",
"Y. c #C9C9C9",
"T. c None",
/* pixels */
"T.T.T.T.T.T.T.T.T.T.T.T.T.T.T.T.T.T.T.T.T.T.T.T.T.T.T.T.T.T.T.T.T.T.T.T.T.T.T.T.",
"T.T.T.T.T.T.T.T.T.T.T.T.T.T.T.T.T.T.T.T.T.T.T.T.T.T.T.T.T.T.T.T.T.T.T.T.T.T.T.T.",
"T.T.T.T.T.T.T.T.T.T.T.T.T.T.T.T.T.T.T.T.T.T.T.T.T.T.T.T.T.T.T.T.T.T.T.T.T.T.T.T.",
"T.T.T.T.T.T.T.T.T.T.T.T.T.T.D.j.l.l.l.l.j.l.l.j.l.J.T.T.T.T.T.T.T.T.T.T.T.T.T.T.",
"T.T.T.T.T.T.T.T.T.T.G.D.J.n.j.v.l.l.v.l.v.l.l.l.j.l.v.G.T.T.T.T.T.T.T.T.T.T.T.T.",
"T.T.T.T.T.T.T.T.G.U j.j.v.l.j.n.v.n.v.v.n.v.v.v.l.v.l.j.m.J.T.T.T.T.T.T.T.T.T.T.",
"T.T.T.T.T.T.T.D.j.j.j.j.l.v.v.D.D.D.m.D.D.D.m.v.D.n.l.l.l.j.J.T.T.T.T.T.T.T.T.T.",
"T.T.T.T.T.T.T.l.j.l.l.v.l.D.D.D.D.D.D.F.D.D.D.n.A.m.v.v.v.l.j.T.T.T.T.T.T.T.T.T.",
"T.T.T.T.T.T.T.n.l.l.v.m.v.z.0.$.@.#.;.+.+.+.-.] X.-.0.D.n.l.j.v.T.T.T.T.T.T.T.T.",
"T.T.T.T.T.T.m.l.v.v.m.n.O.! o.=. .o.<.o.=.=.=.:.>.:.o.M.m.v.l.v.U.T.T.T.T.T.T.T.",
"T.T.T.T.T.D.j.v.v.v.b.O.! :.:.*. .*.>...=.=.>.:.:.:.*.<.n.v.m.j.l.T.T.T.T.T.T.T.",
"T.T.T.T.T.v.v.m.D.A.~ } o.:.:.:.o.;.>...=.*.:.:.:.=.o.>.y.G.D.n.n.G.T.T.T.T.T.T.",
"T.T.T.T.T.l.l.v.A.m._ *.o.:.:.:.o.=.:.o.*.*.:.:.:.o.*.:.C.G.m.n.l.j.T.T.T.T.T.T.",
"T.T.T.T.T.l.v.n.D.D.7 5 i i j u 3 z b b b h z v V b ` :.V.G.D.m.v.l.T.T.T.T.T.T.",
"T.T.T.T.J.v.v.D.F.J.S   + o . $ = > ; < O q w q = o l >.V.D.D.v.v.v.T.T.T.T.T.T.",
"T.T.T.T.v.v.m.F.G.J.%.l w u O z 9 ! a $ $  .*.*.^ n o.<.P.K.J.G.F.T.T.T.T.T.T.T.",
"T.T.T.T.v.v.n.D.G.G.5.3 O k = ; # Q [ l Y o.:.:.>.o.o.,.P.J.G.D.G.T.T.T.T.T.T.T.",
"T.T.T.T.l.v.m.D.G.J.6.M > l < k l W o.o.:.:.:.o.>.! o.3.I.K.J.F.G.T.T.T.T.T.T.T.",
"T.T.T.T.l.v.v.m.F.G.4. .g 0 ` :.o.o.=.o.:.o.:.:.>.Q :.f.Y.K.J.F.m.v.T.T.T.T.T.T.",
"T.T.T.T.T.T.G.G.K.U.8.*...o.:.:.:.o.=.=.o.o.o.:.1.! =.g.U.K.G.D.m.v.K.T.T.T.T.T.",
"T.T.T.T.T.T.G.D.G.K.&.:. .o.:.:.=.o.=.=.o...o.:.,.} ..L.Y.J.G.F.m.v.K.T.T.T.T.T.",
"T.T.T.T.T.T.D.v.F.J.8.>.....>.>.=.=.o.:.:.o.o.:.,.} ..f.U.J.G.D.m.l.T.T.T.T.T.T.",
"T.T.T.T.v.v.m.F.J.K.Z.*.*.o.>.>.o.o.=.:.=.:. .o.B . W 2.M.J.J.F.D.J.T.T.T.T.T.T.",
"T.T.T.T.l.l.n.D.D.G.B. .*...>.>.=.o.o.:.o.o. .X.= & e 1.p.J.D.D.v.T.T.T.T.T.T.T.",
"T.T.T.T.l.l.v.D.D.F.x. .v v :.=. .o.*.*.*.o. .] t ' 0 ,.p.G.F.D.m.T.T.T.T.T.T.T.",
"T.T.T.T.j.j.l.v.m.D.c.c , d h b m  .*.*.=.o...=.V r Y 1.H.G.F.m.v.l.D.T.T.T.T.T.",
"T.T.T.T.G.l.v.v.m.z.A 3 O d 2 + <  .` V {  .o.=.,.| o.1.S.D.n.v.v.j.v.T.T.T.T.T.",
"T.T.T.T.T.U l.l.b.k.M v 2 e # d t  .y # q  .*.;.) R o.<.B.m.m.v.j.j.v.T.T.T.T.T.",
"T.T.T.T.T.j.l.l.v.v.6 - - @ % * ; 1 ; 1 < x p v < = N <.x.v.l.l.j.U v.T.T.T.T.T.",
"T.T.T.T.T.j.U j.l.l.7 X * o X , : t & < > f d n 1 : W >.6.v.l.j.U U G.T.T.T.T.T.",
"T.T.T.T.T.U I U j.j.A V 1 g O u , | r * r o.=.>.o.Q o.>.7.l.j.j.I I J.T.T.T.T.T.",
"T.T.T.T.T.I I I U U A u + f : * = `  .` *.o.:.>.>. .o.>.6.j.U U I K K.T.T.T.T.T.",
"T.T.T.T.l.K I U j.9.Y ( w u t E Q ' o.:.:.*.:.>.,...o.>.6.U I K J J G.T.T.T.T.T.",
"T.T.T.T.G G J K K I ~ <.N n o.o... .o.*.>.o.:.>.>. .o.<.w.U U I K K J K.T.T.T.T.",
"T.T.T.K.F G G J K K C 1.=.o.=.=...| o.=.<.o.>.:.>...o.<.9.K K K G G F D.T.T.T.T.",
"T.T.T.K.F F G J J J C 1.o.o.=.o.o. ...=.:.*.>.:.>...o.<.P J J J F F D D.T.T.T.T.",
"T.T.T.T.D D D F G G M :.} | o.| | } !  .o. .*.o.o.| | ;.L H G F F D S F.T.T.T.T.",
"T.T.T.T.j.j.j.l.k.k.&.t.r.t.a.r.r.d.u.e.t.t.e.e.t.u.r.i.x.j.j.j.I U U T.T.T.T.T.",
"T.T.T.T.T.T.T.T.T.T.T.T.T.T.T.T.T.T.T.T.T.T.T.T.T.T.T.T.T.T.T.T.T.T.T.T.T.T.T.T.",
"T.T.T.T.T.T.T.T.T.T.T.T.T.T.T.T.T.T.T.T.T.T.T.T.T.T.T.T.T.T.T.T.T.T.T.T.T.T.T.T."
};
