/* XPM */
static char *result[] = {
/* columns rows colors chars-per-pixel */
"40 40 63 1 ",
"  c #373735",
". c #393936",
"X c #3E3D3A",
"o c #403F3B",
"O c #43423E",
"+ c #464441",
"@ c #494642",
"# c #4C4945",
"$ c #4F4C49",
"% c #504C47",
"& c #514E4A",
"* c #56524D",
"= c #5A554F",
"- c #575451",
"; c #5A5652",
": c #5E5954",
"> c #5E5B58",
", c #615C56",
"< c #635E59",
"1 c #66615C",
"2 c #69635D",
"3 c #6C6761",
"4 c #6E6963",
"5 c #726B65",
"6 c #756F69",
"7 c #77706A",
"8 c #7B736D",
"9 c #7E7770",
"0 c #7F7870",
"q c #80766E",
"w c #807771",
"e c #837B73",
"r c #887E77",
"t c #877F78",
"y c #897F79",
"u c #8C837C",
"i c #90867E",
"p c #918781",
"a c #958B82",
"s c #998E86",
"d c #9A8F88",
"f c #9B9187",
"g c #9D928A",
"h c #A1958D",
"j c #A4988F",
"k c #A29790",
"l c #A69A91",
"z c #AA9E95",
"x c #ADA097",
"c c #AEA299",
"v c #B1A397",
"b c #B3A59C",
"n c #B6A89F",
"m c #B8AA9F",
"M c #B5A7A0",
"N c #B7A9A0",
"B c #BBADA3",
"V c #BEB0A5",
"C c #BFB1A8",
"Z c #C0B2A7",
"A c #C2B4A9",
"S c #C7B9AE",
"D c #CDBDB2",
/* pixels */
"abnbnccbmbz4BASDSSBZVVbm*7mbnncvvbmVbcbe",
"6nMncnzklly;NZZbzmAZVVBm=2cvvnbnnbbnBmc1",
"+11<;**;,>+#bBNvzbZABVVc,Oei8688874211-X",
"ga0# 1gnBBk,hNNbbbbbnNNb,ouhlhu$O4quuiih",
"VVVhX6BVVVn1ubMcbbzbNbbc>6BBVVVu4VVZVVVV",
"VVAnX0bBVBc>ucMMbbzbCbcc>eVBVBBu7mBmVVVV",
"nVVB+enBVBc-pxlcNBNBbbbc1eBVNBVeuZBbVVZB",
"BBBn#uccMnx-pccMNNMbbbbz38bbbncugNNBVVVB",
"nbbb#wbmnbj#>sxxbcccczly$3bbbvh7gbbbbbNb",
"bbbx@*eew03X+;13<;,363-#X+682;%+fbbbbbbb",
"xxbz*wfhiueugxncs$>zczlzw#izhda%ubMbxbbN",
"bbbh<bbBZVCBnCVBZ4eBZZZBb2zZZbN5>lbMbbbb",
"ria28cbbNNBBNNncM97BBZSAN4zbBZZyX;tahdsy",
"X<2*<579uaaaeeuup,4BZZBBN5bBZZZd$94555<@",
";nBnclfauuu>$4434-7MMbbbb5zAZBBk6BZBbNBe",
"4VnVVAZVZVB09NBBMu9Mcbbbv7zZZZZztBBBBZBh",
"5NNNbxmBNNm8fZBbAk>cbbbbl2hBBBZhwbMcMMbj",
"<bNNbbbbzzf:zmZVBk.O;<<>Oodbbzxi&9::3<,-",
"1<<&*#*>1;XOfZCVbs1bnNxza;abnbbio8mmzbcf",
"ABB,:icnmbuOwNBBBa2BBAVnb5axBbbz-lBBABNZ",
"bZZ4pBBAVBlO7cnNva1VVVVZV7ubNBbc4kNbZZAm",
"bNM3aVcBVxdo0cBNbh,bbBbbneuncNbb4gMNmBmm",
"bzb<gBmZZBj+uBnbbs#bbnBbb78bbNbz-aMbvbnb",
"llh@uVZZBZz#1aaiu,ohcNbNf=:dhfdu+5zbzhhj",
"86,@1cnzxmx$-062,1:&$&:3O..$,55,%#,,;:14",
"zmbu1lbbvbx>gVVmccbxfffg5O;avmmchdddlxnn",
"NZAz>lnNnbx1nBnCVVVVVmVVx2wVmvVSASABnVAB",
"BBBj;kbbcbx1knnBBBmmbcBBbqeVmnVVBNNNBBVB",
"bbbd<lbbxvj-abNvnBvnnnbbb82xnbbnczMMBBBB",
"xjh2;ulhsu7O*uggfsu08uusi;;uasaidhlcczcb",
",,*X#55<;**-;<11*o1631>>;>16651;#+-<432<",
"jxj<2bBnnnnncnBVf#xVVBnvnBmVVbbf4;klcczz",
"mmZg1cBBCCVCVVBVB,ncBBBnBCCAZmBNqeBbBZBB",
"bmBx1xnnnvnBBvcnb,zbNbMMMMbbBBBbwabbNbNM",
"bzle#8uiiissgggfaO7lxlxxcbcbbbbz5ubNMbbb",
"64,OoO#&*&##*><<*Xo*11340agfdau3@%5wuiee",
"%eufvNnnnk<opnNNvbzauui2..$39972<465;@..",
"aZCVVmxBVVg*cCVVZAVVVCVc#:BZZBVVBBZZZbio",
"xVBZCCCVVmc2BVBVAAVnmZAV<4ZVVNZZZZNbBSZ<",
"gmbVBBmmmxx5bbnVSVBnBVCC>7VVBBVBZBZZZZB9"
};
