/* XPM */
static char *result[] = {
/* columns rows colors chars-per-pixel */
"40 40 223 2 ",
"   c black",
".  c #020303",
"X  c #040303",
"o  c #080707",
"O  c #070B0B",
"+  c #0A0909",
"@  c #080D0D",
"#  c #0A0F0F",
"$  c #0F0E0D",
"%  c #100F0F",
"&  c #110F0F",
"*  c #0C1111",
"=  c #0D1313",
"-  c #0D1616",
";  c #0E1717",
":  c #0F1717",
">  c #131110",
",  c #181615",
"<  c #191716",
"1  c #1A1817",
"2  c #101818",
"3  c #121A1A",
"4  c #131C1C",
"5  c #141E1E",
"6  c #141F1F",
"7  c #151F1F",
"8  c #171F1F",
"9  c #1D1B19",
"0  c #181E1B",
"q  c #1C1C1B",
"w  c #17201F",
"e  c #152121",
"r  c #162020",
"t  c #172323",
"y  c #182424",
"u  c #182525",
"i  c #192525",
"p  c #192626",
"a  c #1A2727",
"s  c #1E2726",
"d  c #192828",
"f  c #1B2929",
"g  c #1C2A2A",
"h  c #1D2B2B",
"j  c #1E2C2C",
"k  c #1F2E2E",
"l  c #1F2F2F",
"z  c #252220",
"x  c #262321",
"c  c #2B2826",
"v  c #2C2926",
"b  c #2C2927",
"n  c #232F2E",
"m  c #2D2B29",
"M  c #2F2D2A",
"N  c #322F2C",
"B  c #36322F",
"V  c #203030",
"C  c #203131",
"Z  c #213131",
"A  c #213232",
"S  c #223333",
"D  c #273131",
"F  c #223434",
"G  c #233434",
"H  c #233535",
"J  c #243535",
"K  c #243636",
"L  c #243737",
"P  c #263737",
"I  c #2E3736",
"U  c #273838",
"Y  c #263939",
"T  c #273A3A",
"R  c #283838",
"E  c #283B3B",
"W  c #2D3938",
"Q  c #293D3D",
"!  c #2B3F3F",
"~  c #2D3C3C",
"^  c #363230",
"/  c #363332",
"(  c #383432",
")  c #393532",
"_  c #3F3A37",
"`  c #333B3B",
"'  c #413D3A",
"]  c #47423E",
"[  c #2A4040",
"{  c #2B4040",
"}  c #2B4141",
"|  c #2C4141",
" . c #2E4444",
".. c #2E4545",
"X. c #2F4646",
"o. c #304747",
"O. c #374646",
"+. c #384646",
"@. c #3D4646",
"#. c #304848",
"$. c #304949",
"%. c #314A4A",
"&. c #324B4B",
"*. c #344D4D",
"=. c #344E4E",
"-. c #3A4848",
";. c #454643",
":. c #4C4743",
">. c #4E4844",
",. c #4E4A46",
"<. c #414B4B",
"1. c #414F4F",
"2. c #504A46",
"3. c #57514D",
"4. c #59534F",
"5. c #425151",
"6. c #495656",
"7. c #575450",
"8. c #515E5E",
"9. c #605954",
"0. c #605A55",
"q. c #625B56",
"w. c #635C57",
"e. c #516060",
"r. c #566262",
"t. c #586666",
"y. c #5A6767",
"u. c #6F6762",
"i. c #756D67",
"p. c #617070",
"a. c #667575",
"s. c #687878",
"d. c #6A7A7A",
"f. c #6C7E7E",
"g. c #837A74",
"h. c #897F79",
"j. c #8A8079",
"k. c #8F857E",
"l. c #788B8B",
"z. c #898582",
"x. c #8F8883",
"c. c #928881",
"v. c #998E87",
"b. c #9A8F88",
"n. c #9B9089",
"m. c #9F948C",
"M. c #809393",
"N. c #829696",
"B. c #889C9C",
"V. c #959392",
"C. c #959595",
"Z. c #A69A92",
"A. c #A89C94",
"S. c #ACA098",
"D. c #8CA1A1",
"F. c #8EA3A3",
"G. c #8FA4A4",
"H. c #94AAAA",
"J. c #98AEAE",
"K. c #99B0B0",
"L. c #9AB1B1",
"P. c #A0A0A0",
"I. c #B6A9A0",
"U. c #B6AAA1",
"Y. c #B8ABA2",
"T. c #B9ACA3",
"R. c #BAADA4",
"E. c #BCBAB8",
"W. c #C1B4AA",
"Q. c #C2B5AB",
"!. c #C6B8AE",
"~. c #C3BCB7",
"^. c #CAC0B8",
"/. c #CBC1B9",
"(. c #CFC4BB",
"). c #CEC3BC",
"_. c #D2C3B9",
"`. c #D6C7BC",
"'. c #D7C8BE",
"]. c #D8C9BF",
"[. c #C5C5C5",
"{. c #CCC7C4",
"}. c #D1CAC5",
"|. c #D0CBC7",
" X c #DCCDC2",
".X c #DCCEC4",
"XX c #DECFC4",
"oX c #DCCFC6",
"OX c #D5D4D4",
"+X c #DED9D6",
"@X c #E1D1C6",
"#X c #E2D2C7",
"$X c #E3D3C8",
"%X c #E4D4C9",
"&X c #E5D5CA",
"*X c #E6D6CB",
"=X c #E6D7CC",
"-X c #E7D7CC",
";X c #E9D9CD",
":X c #EADACE",
">X c #EBDACF",
",X c #ECDBD0",
"<X c #ECDCD0",
"1X c #EDDCD1",
"2X c #EDDDD1",
"3X c #EEDDD2",
"4X c #EFDED2",
"5X c #EFDFD3",
"6X c #EDDED4",
"7X c #F0DFD4",
"8X c #F0E0D4",
"9X c #F1E1D5",
"0X c #F3E2D6",
"qX c #F3E2D7",
"wX c #F4E3D7",
"eX c #E9E8E6",
"rX c #EAEAEA",
"tX c gray92",
"yX c #ECEBEA",
"uX c #EEEEEE",
"iX c gray97",
"pX c gray99",
"aX c None",
/* pixels */
"aXaXaXaXaXaXaXaXaXaXaXaXaXaXaXaXaXaX            aXaXaXaXaXaXaXaXaXaXaXaXaXaXaXaX",
"aXaXaXaXaXaXaXaXaXaXaXaXaXaXaXaX                        aXaXaXaXaXaXaXaXaXaXaXaX",
"aXaXaXaXaXaXaXaXaXaXaXaXaX                              aXaXaXaXaXaXaXaXaXaXaXaX",
"aXaXaXaXaXaXaXaXaXaXaXaXaX                                aXaXaXaXaXaXaXaXaXaXaX",
"aXaXaXaXaXaXaXaXaXaXaX                                      aXaXaXaXaXaXaXaXaXaX",
"aXaXaXaXaXaXaXaXaXaXaX                      $               aXaXaXaXaXaXaXaXaXaX",
"aXaXaXaXaXaXaXaXaXaX                        m.'   1 %       aXaXaXaXaXaXaXaXaXaX",
"aXaXaXaXaXaXaXaXaXaX              q.) o     A.#X] b :.      aXaXaXaXaXaXaXaXaXaX",
"aXaXaXaXaXaXaXaXaX              $ 8XwX%XY.S.@XwX:Xh.b.&     aXaXaXaXaXaXaXaXaXaX",
"aXaXaXaXaXaXaXaXaX              N wXwXwXwXwXwXwXwX0X9X9.    aXaXaXaXaXaXaXaXaXaX",
"aXaXaXaXaXaXaXaXaX              _ wX3X$X4XwXwXwXwXwXwXn.X   aXaXaXaXaXaXaXaXaXaX",
"aXaXaXaXaXaXaXaXaXaX        x 4.( *X< v B w.@XwX3XI.Z.u.aX  aXaXaXaXaXaXaXaXaXaX",
"aXaXaXaXaXaXaXaXaXaX      z 9 0XS.>X.X+XyX}.'.wXT.x.z./ aXaXaXaXaXaXaXaXaXaXaXaX",
"aXaXaXaXaXaXaXaXaXaX  > , v.M wXwXwX~.uXiXV.6XwXoXeXtXC.aXaXaXaXaXaXaXaXaXaXaXaX",
"aXaXaXaXaXaXaXaXaXaX  + `.].%X7XwXwX^.OXpX|.5XwX).rX[.P.aXaXaXaXaXaXaXaXaXaXaXaX",
"aXaXaXaXaXaXaXaXaXaXaX  0.`.wXwXwXwXqX(./.2X4X:X=X{.E.aXaXaXaXaXaXaXaXaXaXaXaXaX",
"aXaXaXaXaXaXaXaXaXaXaX  aX2.wXwXwXwXwXwXwXwX4XT.7XwXj.aXaXaXaXaXaXaXaXaXaXaXaXaX",
"aXaXaXaXaXaXaXaXaXaXaXaXaXaX$XwXwXwXwX&XU.XXwXwXwX<Xq.aXaXaXaXaXaXaXaXaXaXaXaXaX",
"aXaXaXaXaXaXaXaXaXaXaXaXaXaX>.,XwXwXwXwXwXwXwXwXwXc.aXaXaXaXaXaXaXaXaXaXaXaXaXaX",
"aXaXaXaXaXaXaXaXaXaXaXaXaXaXaX^ c.W. X>X0XwX1X_.k.aXaXaXaXaXaXaXaXaXaXaXaXaXaXaX",
"aXaXaXaXaXaXaXaXaXaXaXaXaXaXaXaX5 Q K 8 r.a.<.; aXaXaXaXaXaXaXaXaXaXaXaXaXaXaXaX",
"aXaXaXaXaXaXaXaXaXaXaXaXaXaXaXL o.j =.$.-.F.d.d @ aXaXaXaXaXaXaXaXaXaXaXaXaXaXaX",
"aXaXaXaXaXaXaXaXaXaXaXaXaXaXaX=.=.y =.=.R M.p.: aXaXaXaXaXaXaXaXaXaXaXaXaXaXaXaX",
"aXaXaXaXaXaXaXaXaXaXaXaXaXaX= =.=.a =.=.O.D.y.5 4 aXaXaXaXaXaXaXaXaXaXaXaXaXaXaX",
"aXaXaXaXaXaXaXaXaXaXaXaXaXaX# *.=.g =.%.e.K.8.w 0 aXaXaXaXaXaXaXaXaXaXaXaXaXaXaX",
"aXaXaXaXaXaXaXaXaXaXaXaXaXaXaX#.=.k =.P l.L.6.p h aXaXaXaXaXaXaXaXaXaXaXaXaXaXaX",
"aXaXaXaXaXaXaXaXaXaXaXaXaXaX  &.=.K ..5.H.L.1.p | aXaXaXaXaXaXaXaXaXaXaXaXaXaXaX",
"aXaXaXaXaXaXaXaXaXaXaXaXaXaX. =.=.} 3 f.L.L.+.e D q aXaXaXaXaXaXaXaXaXaXaXaXaXaX",
"aXaXaXaXaXaXaXaXaXaXaXaXaXaXO l I m ` G.L.J.~ s R.g.aXaXaXaXaXaXaXaXaXaXaXaXaXaX",
"aXaXaXaXaXaXaXaXaXaXaXaXaXaX= !.wX-X7.N.L.B.U n i.3.aXaXaXaXaXaXaXaXaXaXaXaXaXaX",
"aXaXaXaXaXaXaXaXaXaXaXaXaXaXaXQ.;X:X,.@.s.t.e - aXaXaXaXaXaXaXaXaXaXaXaXaXaXaXaX",
"aXaXaXaXaXaXaXaXaXaXaXaXaXaXaXc ;.W | A S Y i aXaXaXaXaXaXaXaXaXaXaXaXaXaXaXaXaX",
"aXaXaXaXaXaXaXaXaXaXaXaXaXaXaXaX=.=.=.G { =.V aXaXaXaXaXaXaXaXaXaXaXaXaXaXaXaXaX",
"aXaXaXaXaXaXaXaXaXaXaXaXaXaXaX2 =.=.=.G [ =.k aXaXaXaXaXaXaXaXaXaXaXaXaXaXaXaXaX",
"aXaXaXaXaXaXaXaXaXaXaXaXaXaXaX4 =.=.=.S { =.g aXaXaXaXaXaXaXaXaXaXaXaXaXaXaXaXaX",
"aXaXaXaXaXaXaXaXaXaXaXaXaXaXaX* Z H Q a g a aXaXaXaXaXaXaXaXaXaXaXaXaXaXaXaXaXaX",
"aXaXaXaXaXaXaXaXaXaXaXaXaXaXaX4 X. .f Q =.J aXaXaXaXaXaXaXaXaXaXaXaXaXaXaXaXaXaX",
"aXaXaXaXaXaXaXaXaXaXaXaXaXaXaXu =.=.k ..=.S aXaXaXaXaXaXaXaXaXaXaXaXaXaXaXaXaXaX",
"aXaXaXaXaXaXaXaXaXaXaXaXaXaXaXH =.=.F E =.&.t aXaXaXaXaXaXaXaXaXaXaXaXaXaXaXaXaX",
"aXaXaXaXaXaXaXaXaXaXaXaXaXaXaX6 C ! T 2 7 r : aXaXaXaXaXaXaXaXaXaXaXaXaXaXaXaXaX"
};
