/* XPM */
static char *result[] = {
/* columns rows colors chars-per-pixel */
"40 40 56 1 ",
"  c #C1403A",
". c #CB4B40",
"X c #CE4E41",
"o c #CD4F43",
"O c #CE5043",
"+ c #D05143",
"@ c #D05245",
"# c #D25344",
"$ c #D15446",
"% c #D35546",
"& c #D45546",
"* c #D45646",
"= c #D55747",
"- c #D65848",
"; c #D65948",
": c #D75948",
"> c #D75949",
", c #D75A48",
"< c #D75A49",
"1 c #D85A49",
"2 c #D85B4A",
"3 c #D95B4A",
"4 c #D95C4A",
"5 c #D95C4B",
"6 c #D95D4B",
"7 c #DA5D4B",
"8 c #DA5E4B",
"9 c #DB5E4B",
"0 c #DA5E4C",
"q c #DB5E4C",
"w c #DB5F4C",
"e c #DC604D",
"r c #DD604D",
"t c #DD614D",
"y c #DD614E",
"u c #DE614E",
"i c #DD624E",
"p c #DE624E",
"a c #DF644F",
"s c #DF6450",
"d c #E06550",
"f c #E06650",
"g c #E06651",
"h c #E36852",
"j c #E46953",
"k c #E56B54",
"l c #E56C55",
"z c #E66C55",
"x c #E76D55",
"c c #E76D56",
"v c #E86E57",
"b c #E86F57",
"n c #EA7058",
"m c #EA7158",
"M c #EA7159",
"N c #EB7259",
/* pixels */
"iiiizNNN1X*iiisNNNNNNNNNNNNNN4X&iiisMNNN",
"iiiibNNNqX-iiidNNNNNNNNNNNNNNrX=iiigNNNN",
"iiiibNNNqX-iiidNNNNNNNNNNNNNNrX=iiigNNNN",
"iiiibNNNqX-iiidNNNNNNNNNNNNNNrX=iiigNNNN",
"iiiibNNNqX-iiidNNNNNNNNNNNNNNrX=iiigNNNN",
"iiiibNNNqX-iiidNNNNNNNNNNNNNNrX=iiigNNNN",
"iiiibNNNqX-iiidNNNNNNNNNNNNNNrX=iiigNNNN",
"iiiivNNN9X-iiidNNNNNNNNNNNNNNrX=iiigNNNN",
"o@@@5yyr#X+;;;<tyyyyyyyyyyyyr#X+;;;>ryy7",
"    .XXXXXXXXXXXXXXXXXXXXXXXXXXXXXXXXXXX",
"O$$$6ppppppppppppp2XX*<<<8ppppppppppppp9",
"iiiivNNNNNNNNNNNNNxXXwiiicNNNNNNNNNNNNNN",
"iiiibNNNNNNNNNNNNNcXXwiiicNNNNNNNNNNNNNN",
"iiiibNNNNNNNNNNNNNcXXwiiicNNNNNNNNNNNNNN",
"iiiibNNNNNNNNNNNNNcXXwiiicNNNNNNNNNNNNNN",
"iiiibNNNNNNNNNNNNNcXXwiiicNNNNNNNNNNNNNN",
"iiiibNNNNNNNNNNNNNcXXwiiicNNNNNNNNNNNNNN",
"iiiibNNNNNNNNNNNNNcXXwiiicNNNNNNNNNNNNNN",
"0iiizmmmmmmmmmmmmmhXX6iiikmmmmmmmmmmmmmc",
"    .XXXXXXXXXXXXXXXXXXXXXXXXXXXXXXXXXXX",
"    .XXXXXXXXXXXXXXXXXXXXXXXXXXXXXXXXXXX",
"0iiizmmn1X*iiiammmmmmmmmmmmmn3X%iiianmmc",
"iiiibNNNqX-iiidNNNNNNNNNNNNNNrX=iiigNNNN",
"iiiibNNNqX-iiidNNNNNNNNNNNNNNrX=iiigNNNN",
"iiiibNNNqX-iiidNNNNNNNNNNNNNNrX=iiigNNNN",
"iiiibNNNqX-iiidNNNNNNNNNNNNNNrX=iiigNNNN",
"iiiibNNNqX-iiidNNNNNNNNNNNNNNrX=iiigNNNN",
"iiiibNNNqX-iiidNNNNNNNNNNNNNNrX=iiigNNNN",
"iiiivNNN8X-iiidNNNNNNNNNNNNNNeX=iiifNNNN",
"O$$$6ppp#X+:<<<pppppppppppppp#X+,<<<upp9",
"    .XXXXXXXXXXXXXXXXXXXXXXXXXXXXXXXXXXX",
"o@@@5yyyyyyyyyyyyy1XX&;;;7yyyyyyyyyyyyy7",
"iiiivNNNNNNNNNNNNNxXXwiiicNNNNNNNNNNNNNN",
"iiiibNNNNNNNNNNNNNcXXwiiicNNNNNNNNNNNNNN",
"iiiibNNNNNNNNNNNNNcXXwiiicNNNNNNNNNNNNNN",
"iiiibNNNNNNNNNNNNNcXXwiiicNNNNNNNNNNNNNN",
"iiiibNNNNNNNNNNNNNcXXwiiicNNNNNNNNNNNNNN",
"iiiibNNNNNNNNNNNNNcXXwiiicNNNNNNNNNNNNNN",
"iiiibNNNNNNNNNNNNNcXXwiiicNNNNNNNNNNNNNN",
"iiiizNNNNNNNNNNNNNjXX8iiilNNNNNNNNNNNNNN"
};
